<?xml version="1.0" encoding="utf-8"?>
<!-- Generator: Adobe Illustrator 23.0.6, SVG Export Plug-In . SVG Version: 6.00 Build 0)  -->
<svg version="1.1" id="Vrstva_1" xmlns="http://www.w3.org/2000/svg" xmlns:xlink="http://www.w3.org/1999/xlink" x="0px" y="0px"
	 viewBox="0 0 100 100" style="enable-background:new 0 0 100 100;" xml:space="preserve">
<style type="text/css">
	.st0{fill:#FF9168;}
	.st1{fill:#FFFFFF;}
</style>
<path class="st0" d="M92.61,100H7.39C3.31,100,0,96.69,0,92.61V7.39C0,3.31,3.31,0,7.39,0h85.21C96.69,0,100,3.31,100,7.39v85.21
	C100,96.69,96.69,100,92.61,100z"/>
<g>
	<path class="st1" d="M91.53,56.92C89.93,55.66,87.87,55,85.59,55c-1.16,0-2.36,0.17-3.56,0.52l-5.94,1.68
		c-0.07,0-0.1-0.03-0.12-0.06c-0.04-0.06-0.03-0.13-0.01-0.19L86.25,28.3c1.25-3.52,0.97-7.02-0.78-9.59
		c-1.72-2.53-4.59-3.93-8.09-3.93c-2.06,0-4.18,0.48-6.28,1.43c-0.05,0.02-0.09,0.03-0.13,0.03c-0.05,0-0.09-0.02-0.11-0.05
		c-0.03-0.03-0.04-0.08-0.03-0.15c0.38-2.64-0.11-5.05-1.42-6.98c-1.72-2.53-4.59-3.93-8.09-3.93c-5.16,0-10.67,3.07-14.03,7.81
		c-0.06,0.09-0.16,0.14-0.25,0.14c-0.08,0-0.12-0.04-0.13-0.05c-1.75-1.71-4.16-2.62-6.98-2.62c-6.7,0-13.8,5.21-16.16,11.85
		c0,0.01-5.08,14.03-5.11,14.13c-1.14,3.21-4.36,6.18-7.83,7.23c-0.03,0.01-0.07-0.01-0.07-0.01H-47v6.11H9.48
		c0.09,0.03,0.58,0.01,0.67,0h0l0,0c6.1-0.93,11.98-5.8,14.07-11.67c0-0.01,0.01-0.02,5.11-14.13c1.47-4.13,6.15-7.62,10.23-7.62
		c1.58,0,2.82,0.55,3.5,1.54c0.74,1.09,0.81,2.66,0.18,4.42l-3.57,10.04l-5.35,15.15c-0.21,0.59-0.12,1.23,0.22,1.72
		c0.34,0.49,0.89,0.77,1.5,0.77h2.07c0.85,0,1.62-0.55,1.91-1.36l2.37-6.66l5.39-15.07c0,0,2.93-8.26,2.94-8.28
		c1.49-4.1,6.15-7.55,10.21-7.55c1.58,0,2.82,0.55,3.5,1.54c0.74,1.09,0.81,2.66,0.18,4.42l-3.57,10.04l-4.72,13.4l-2.51,7.05
		c-0.21,0.59-0.13,1.23,0.22,1.72c0.34,0.49,0.89,0.77,1.5,0.77h2.05c0.85,0,1.62-0.55,1.91-1.36l4.33-12.11l2.92-8.21
		c0.01-0.02,0.01-0.05,0.02-0.07c1.49-4.1,6.15-7.55,10.21-7.55c1.58,0,2.82,0.55,3.5,1.54c0.74,1.09,0.81,2.66,0.18,4.42
		l-3.57,10.03L68.9,59.52c-0.02,0.04-0.04,0.07-0.05,0.11l-1.04,2.9c-0.21,0.6-0.14,1.23,0.21,1.73c0.34,0.48,0.9,0.77,1.5,0.77
		c0.18,0,0.37-0.03,0.55-0.08l13.25-3.78c0.68-0.19,1.32-0.29,1.93-0.29c0.99,0,1.82,0.25,2.46,0.76c0.95,0.74,1.41,2.02,1.31,3.6
		c-0.26,4.08-4.04,8.54-8.25,9.74c0,0-0.04,0.01-0.07,0.02l-17.28,4.93c-1.31,0.37-2.36,1.36-2.82,2.64l-1.1,3.07
		c-0.02,0.05-0.03,0.09-0.04,0.14l-1.28,3.55c-0.33,0.91-0.21,1.87,0.32,2.63c0.52,0.74,1.34,1.16,2.27,1.16
		c1.3,0,2.51-0.87,2.96-2.11l2.01-5.58c0.04-0.11,0.14-0.2,0.25-0.23l16.07-4.54c6.78-1.93,12.42-8.69,12.86-15.39
		C95.14,61.76,93.94,58.8,91.53,56.92z"/>
	<path class="st1" d="M91.53,56.92C89.93,55.66,87.87,55,85.59,55c-1.16,0-2.36,0.17-3.56,0.52l-5.94,1.68
		c-0.07,0-0.1-0.03-0.12-0.06c-0.04-0.06-0.03-0.13-0.01-0.19L86.25,28.3c1.25-3.52,0.97-7.02-0.78-9.59
		c-1.72-2.53-4.59-3.93-8.09-3.93c-2.06,0-4.18,0.48-6.28,1.43c-0.05,0.02-0.09,0.03-0.13,0.03c-0.05,0-0.09-0.02-0.11-0.05
		c-0.03-0.03-0.04-0.08-0.03-0.15c0.38-2.64-0.11-5.05-1.42-6.98c-1.72-2.53-4.59-3.93-8.09-3.93c-5.16,0-10.67,3.07-14.03,7.81
		c-0.06,0.09-0.16,0.14-0.25,0.14c-0.08,0-0.12-0.04-0.13-0.05c-1.75-1.71-4.16-2.62-6.98-2.62c-6.7,0-13.8,5.21-16.16,11.85
		c0,0.01-5.08,14.03-5.11,14.13c-1.14,3.21-4.36,6.18-7.83,7.23c-0.03,0.01-0.07-0.01-0.07-0.01H-47v6.11H9.48
		c0.09,0.03,0.58,0.01,0.67,0h0l0,0c6.1-0.93,11.98-5.8,14.07-11.67c0-0.01,0.01-0.02,5.11-14.13c1.47-4.13,6.15-7.62,10.23-7.62
		c1.58,0,2.82,0.55,3.5,1.54c0.74,1.09,0.81,2.66,0.18,4.42l-3.57,10.04l-5.35,15.15c-0.21,0.59-0.12,1.23,0.22,1.72
		c0.34,0.49,0.89,0.77,1.5,0.77h2.07c0.85,0,1.62-0.55,1.91-1.36l2.37-6.66l5.39-15.07c0,0,2.93-8.26,2.94-8.28
		c1.49-4.1,6.15-7.55,10.21-7.55c1.58,0,2.82,0.55,3.5,1.54c0.74,1.09,0.81,2.66,0.18,4.42l-3.57,10.04l-4.72,13.4l-2.51,7.05
		c-0.21,0.59-0.13,1.23,0.22,1.72c0.34,0.49,0.89,0.77,1.5,0.77h2.05c0.85,0,1.62-0.55,1.91-1.36l4.33-12.11l2.92-8.21
		c0.01-0.02,0.01-0.05,0.02-0.07c1.49-4.1,6.15-7.55,10.21-7.55c1.58,0,2.82,0.55,3.5,1.54c0.74,1.09,0.81,2.66,0.18,4.42
		l-3.57,10.03L68.9,59.52c-0.02,0.04-0.04,0.07-0.05,0.11l-1.04,2.9c-0.21,0.6-0.14,1.23,0.21,1.73c0.34,0.48,0.9,0.77,1.5,0.77
		c0.18,0,0.37-0.03,0.55-0.08l13.25-3.78c0.68-0.19,1.32-0.29,1.93-0.29c0.99,0,1.82,0.25,2.46,0.76c0.95,0.74,1.41,2.02,1.31,3.6
		c-0.26,4.08-4.04,8.54-8.25,9.74c0,0-0.04,0.01-0.07,0.02l-17.28,4.93c-1.31,0.37-2.36,1.36-2.82,2.64l-1.1,3.07
		c-0.02,0.05-0.03,0.09-0.04,0.14l-1.28,3.55c-0.33,0.91-0.21,1.87,0.32,2.63c0.52,0.74,1.34,1.16,2.27,1.16
		c1.3,0,2.51-0.87,2.96-2.11l2.01-5.58c0.04-0.11,0.14-0.2,0.25-0.23l16.07-4.54c6.78-1.93,12.42-8.69,12.86-15.39
		C95.14,61.76,93.94,58.8,91.53,56.92z"/>
	<path class="st1" d="M91.53,56.92C89.93,55.66,87.87,55,85.59,55c-1.16,0-2.36,0.17-3.56,0.52l-5.94,1.68
		c-0.07,0-0.1-0.03-0.12-0.06c-0.04-0.06-0.03-0.13-0.01-0.19L86.25,28.3c1.25-3.52,0.97-7.02-0.78-9.59
		c-1.72-2.53-4.59-3.93-8.09-3.93c-2.06,0-4.18,0.48-6.28,1.43c-0.05,0.02-0.09,0.03-0.13,0.03c-0.05,0-0.09-0.02-0.11-0.05
		c-0.03-0.03-0.04-0.08-0.03-0.15c0.38-2.64-0.11-5.05-1.42-6.98c-1.72-2.53-4.59-3.93-8.09-3.93c-5.16,0-10.67,3.07-14.03,7.81
		c-0.06,0.09-0.16,0.14-0.25,0.14c-0.08,0-0.12-0.04-0.13-0.05c-1.75-1.71-4.16-2.62-6.98-2.62c-6.7,0-13.8,5.21-16.16,11.85
		c0,0.01-5.08,14.03-5.11,14.13c-1.14,3.21-4.36,6.18-7.83,7.23c-0.03,0.01-0.07-0.01-0.07-0.01H-47v6.11H9.48
		c0.09,0.03,0.58,0.01,0.67,0h0l0,0c6.1-0.93,11.98-5.8,14.07-11.67c0-0.01,0.01-0.02,5.11-14.13c1.47-4.13,6.15-7.62,10.23-7.62
		c1.58,0,2.82,0.55,3.5,1.54c0.74,1.09,0.81,2.66,0.18,4.42l-3.57,10.04l-5.35,15.15c-0.21,0.59-0.12,1.23,0.22,1.72
		c0.34,0.49,0.89,0.77,1.5,0.77h2.07c0.85,0,1.62-0.55,1.91-1.36l2.37-6.66l5.39-15.07c0,0,2.93-8.26,2.94-8.28
		c1.49-4.1,6.15-7.55,10.21-7.55c1.58,0,2.82,0.55,3.5,1.54c0.74,1.09,0.81,2.66,0.18,4.42l-3.57,10.04l-4.72,13.4l-2.51,7.05
		c-0.21,0.59-0.13,1.23,0.22,1.72c0.34,0.49,0.89,0.77,1.5,0.77h2.05c0.85,0,1.62-0.55,1.91-1.36l4.33-12.11l2.92-8.21
		c0.01-0.02,0.01-0.05,0.02-0.07c1.49-4.1,6.15-7.55,10.21-7.55c1.58,0,2.82,0.55,3.5,1.54c0.74,1.09,0.81,2.66,0.18,4.42
		l-3.57,10.03L68.9,59.52c-0.02,0.04-0.04,0.07-0.05,0.11l-1.04,2.9c-0.21,0.6-0.14,1.23,0.21,1.73c0.34,0.48,0.9,0.77,1.5,0.77
		c0.18,0,0.37-0.03,0.55-0.08l13.25-3.78c0.68-0.19,1.32-0.29,1.93-0.29c0.99,0,1.82,0.25,2.46,0.76c0.95,0.74,1.41,2.02,1.31,3.6
		c-0.26,4.08-4.04,8.54-8.25,9.74c0,0-0.04,0.01-0.07,0.02l-17.28,4.93c-1.31,0.37-2.36,1.36-2.82,2.64l-1.1,3.07
		c-0.02,0.05-0.03,0.09-0.04,0.14l-1.28,3.55c-0.33,0.91-0.21,1.87,0.32,2.63c0.52,0.74,1.34,1.16,2.27,1.16
		c1.3,0,2.51-0.87,2.96-2.11l2.01-5.58c0.04-0.11,0.14-0.2,0.25-0.23l16.07-4.54c6.78-1.93,12.42-8.69,12.86-15.39
		C95.14,61.76,93.94,58.8,91.53,56.92z"/>
	<path class="st1" d="M91.53,56.92C89.93,55.66,87.87,55,85.59,55c-1.16,0-2.36,0.17-3.56,0.52l-5.94,1.68
		c-0.07,0-0.1-0.03-0.12-0.06c-0.04-0.06-0.03-0.13-0.01-0.19L86.25,28.3c1.25-3.52,0.97-7.02-0.78-9.59
		c-1.72-2.53-4.59-3.93-8.09-3.93c-2.06,0-4.18,0.48-6.28,1.43c-0.05,0.02-0.09,0.03-0.13,0.03c-0.05,0-0.09-0.02-0.11-0.05
		c-0.03-0.03-0.04-0.08-0.03-0.15c0.38-2.64-0.11-5.05-1.42-6.98c-1.72-2.53-4.59-3.93-8.09-3.93c-5.16,0-10.67,3.07-14.03,7.81
		c-0.06,0.09-0.16,0.14-0.25,0.14c-0.08,0-0.12-0.04-0.13-0.05c-1.75-1.71-4.16-2.62-6.98-2.62c-6.7,0-13.8,5.21-16.16,11.85
		c0,0.01-5.08,14.03-5.11,14.13c-1.14,3.21-4.36,6.18-7.83,7.23c-0.03,0.01-0.07-0.01-0.07-0.01H-47v6.11H9.48
		c0.09,0.03,0.58,0.01,0.67,0h0l0,0c6.1-0.93,11.98-5.8,14.07-11.67c0-0.01,0.01-0.02,5.11-14.13c1.47-4.13,6.15-7.62,10.23-7.62
		c1.58,0,2.82,0.55,3.5,1.54c0.74,1.09,0.81,2.66,0.18,4.42l-3.57,10.04l-5.35,15.15c-0.21,0.59-0.12,1.23,0.22,1.72
		c0.34,0.49,0.89,0.77,1.5,0.77h2.07c0.85,0,1.62-0.55,1.91-1.36l2.37-6.66l5.39-15.07c0,0,2.93-8.26,2.94-8.28
		c1.49-4.1,6.15-7.55,10.21-7.55c1.58,0,2.82,0.55,3.5,1.54c0.74,1.09,0.81,2.66,0.18,4.42l-3.57,10.04l-4.72,13.4l-2.51,7.05
		c-0.21,0.59-0.13,1.23,0.22,1.72c0.34,0.49,0.89,0.77,1.5,0.77h2.05c0.85,0,1.62-0.55,1.91-1.36l4.33-12.11l2.92-8.21
		c0.01-0.02,0.01-0.05,0.02-0.07c1.49-4.1,6.15-7.55,10.21-7.55c1.58,0,2.82,0.55,3.5,1.54c0.74,1.09,0.81,2.66,0.18,4.42
		l-3.57,10.03L68.9,59.52c-0.02,0.04-0.04,0.07-0.05,0.11l-1.04,2.9c-0.21,0.6-0.14,1.23,0.21,1.73c0.34,0.48,0.9,0.77,1.5,0.77
		c0.18,0,0.37-0.03,0.55-0.08l13.25-3.78c0.68-0.19,1.32-0.29,1.93-0.29c0.99,0,1.82,0.25,2.46,0.76c0.95,0.74,1.41,2.02,1.31,3.6
		c-0.26,4.08-4.04,8.54-8.25,9.74c0,0-0.04,0.01-0.07,0.02l-17.28,4.93c-1.31,0.37-2.36,1.36-2.82,2.64l-1.1,3.07
		c-0.02,0.05-0.03,0.09-0.04,0.14l-1.28,3.55c-0.33,0.91-0.21,1.87,0.32,2.63c0.52,0.74,1.34,1.16,2.27,1.16
		c1.3,0,2.51-0.87,2.96-2.11l2.01-5.58c0.04-0.11,0.14-0.2,0.25-0.23l16.07-4.54c6.78-1.93,12.42-8.69,12.86-15.39
		C95.14,61.76,93.94,58.8,91.53,56.92z"/>
	<path class="st1" d="M91.53,56.92C89.93,55.66,87.87,55,85.59,55c-1.16,0-2.36,0.17-3.56,0.52l-5.94,1.68
		c-0.07,0-0.1-0.03-0.12-0.06c-0.04-0.06-0.03-0.13-0.01-0.19L86.25,28.3c1.25-3.52,0.97-7.02-0.78-9.59
		c-1.72-2.53-4.59-3.93-8.09-3.93c-2.06,0-4.18,0.48-6.28,1.43c-0.05,0.02-0.09,0.03-0.13,0.03c-0.05,0-0.09-0.02-0.11-0.05
		c-0.03-0.03-0.04-0.08-0.03-0.15c0.38-2.64-0.11-5.05-1.42-6.98c-1.72-2.53-4.59-3.93-8.09-3.93c-5.16,0-10.67,3.07-14.03,7.81
		c-0.06,0.09-0.16,0.14-0.25,0.14c-0.08,0-0.12-0.04-0.13-0.05c-1.75-1.71-4.16-2.62-6.98-2.62c-6.7,0-13.8,5.21-16.16,11.85
		c0,0.01-5.08,14.03-5.11,14.13c-1.14,3.21-4.36,6.18-7.83,7.23c-0.03,0.01-0.07-0.01-0.07-0.01H-47v6.11H9.48
		c0.09,0.03,0.58,0.01,0.67,0h0l0,0c6.1-0.93,11.98-5.8,14.07-11.67c0-0.01,0.01-0.02,5.11-14.13c1.47-4.13,6.15-7.62,10.23-7.62
		c1.58,0,2.82,0.55,3.5,1.54c0.74,1.09,0.81,2.66,0.18,4.42l-3.57,10.04l-5.35,15.15c-0.21,0.59-0.12,1.23,0.22,1.72
		c0.34,0.49,0.89,0.77,1.5,0.77h2.07c0.85,0,1.62-0.55,1.91-1.36l2.37-6.66l5.39-15.07c0,0,2.93-8.26,2.94-8.28
		c1.49-4.1,6.15-7.55,10.21-7.55c1.58,0,2.82,0.55,3.5,1.54c0.74,1.09,0.81,2.66,0.18,4.42l-3.57,10.04l-4.72,13.4l-2.51,7.05
		c-0.21,0.59-0.13,1.23,0.22,1.72c0.34,0.49,0.89,0.77,1.5,0.77h2.05c0.85,0,1.62-0.55,1.91-1.36l4.33-12.11l2.92-8.21
		c0.01-0.02,0.01-0.05,0.02-0.07c1.49-4.1,6.15-7.55,10.21-7.55c1.58,0,2.82,0.55,3.5,1.54c0.74,1.09,0.81,2.66,0.18,4.42
		l-3.57,10.03L68.9,59.52c-0.02,0.04-0.04,0.07-0.05,0.11l-1.04,2.9c-0.21,0.6-0.14,1.23,0.21,1.73c0.34,0.48,0.9,0.77,1.5,0.77
		c0.18,0,0.37-0.03,0.55-0.08l13.25-3.78c0.68-0.19,1.32-0.29,1.93-0.29c0.99,0,1.82,0.25,2.46,0.76c0.95,0.74,1.41,2.02,1.31,3.6
		c-0.26,4.08-4.04,8.54-8.25,9.74c0,0-0.04,0.01-0.07,0.02l-17.28,4.93c-1.31,0.37-2.36,1.36-2.82,2.64l-1.1,3.07
		c-0.02,0.05-0.03,0.09-0.04,0.14l-1.28,3.55c-0.33,0.91-0.21,1.87,0.32,2.63c0.52,0.74,1.34,1.16,2.27,1.16
		c1.3,0,2.51-0.87,2.96-2.11l2.01-5.58c0.04-0.11,0.14-0.2,0.25-0.23l16.07-4.54c6.78-1.93,12.42-8.69,12.86-15.39
		C95.14,61.76,93.94,58.8,91.53,56.92z"/>
	<path class="st1" d="M91.53,56.92C89.93,55.66,87.87,55,85.59,55c-1.16,0-2.36,0.17-3.56,0.52l-5.94,1.68
		c-0.07,0-0.1-0.03-0.12-0.06c-0.04-0.06-0.03-0.13-0.01-0.19L86.25,28.3c1.25-3.52,0.97-7.02-0.78-9.59
		c-1.72-2.53-4.59-3.93-8.09-3.93c-2.06,0-4.18,0.48-6.28,1.43c-0.05,0.02-0.09,0.03-0.13,0.03c-0.05,0-0.09-0.02-0.11-0.05
		c-0.03-0.03-0.04-0.08-0.03-0.15c0.38-2.64-0.11-5.05-1.42-6.98c-1.72-2.53-4.59-3.93-8.09-3.93c-5.16,0-10.67,3.07-14.03,7.81
		c-0.06,0.09-0.16,0.14-0.25,0.14c-0.08,0-0.12-0.04-0.13-0.05c-1.75-1.71-4.16-2.62-6.98-2.62c-6.7,0-13.8,5.21-16.16,11.85
		c0,0.01-5.08,14.03-5.11,14.13c-1.14,3.21-4.36,6.18-7.83,7.23c-0.03,0.01-0.07-0.01-0.07-0.01H-47v6.11H9.48
		c0.09,0.03,0.58,0.01,0.67,0h0l0,0c6.1-0.93,11.98-5.8,14.07-11.67c0-0.01,0.01-0.02,5.11-14.13c1.47-4.13,6.15-7.62,10.23-7.62
		c1.58,0,2.82,0.55,3.5,1.54c0.74,1.09,0.81,2.66,0.18,4.42l-3.57,10.04l-5.35,15.15c-0.21,0.59-0.12,1.23,0.22,1.72
		c0.34,0.49,0.89,0.77,1.5,0.77h2.07c0.85,0,1.62-0.55,1.91-1.36l2.37-6.66l5.39-15.07c0,0,2.93-8.26,2.94-8.28
		c1.49-4.1,6.15-7.55,10.21-7.55c1.58,0,2.82,0.55,3.5,1.54c0.74,1.09,0.81,2.66,0.18,4.42l-3.57,10.04l-4.72,13.4l-2.51,7.05
		c-0.21,0.59-0.13,1.23,0.22,1.72c0.34,0.49,0.89,0.77,1.5,0.77h2.05c0.85,0,1.62-0.55,1.91-1.36l4.33-12.11l2.92-8.21
		c0.01-0.02,0.01-0.05,0.02-0.07c1.49-4.1,6.15-7.55,10.21-7.55c1.58,0,2.82,0.55,3.5,1.54c0.74,1.09,0.81,2.66,0.18,4.42
		l-3.57,10.03L68.9,59.52c-0.02,0.04-0.04,0.07-0.05,0.11l-1.04,2.9c-0.21,0.6-0.14,1.23,0.21,1.73c0.34,0.48,0.9,0.77,1.5,0.77
		c0.18,0,0.37-0.03,0.55-0.08l13.25-3.78c0.68-0.19,1.32-0.29,1.93-0.29c0.99,0,1.82,0.25,2.46,0.76c0.95,0.74,1.41,2.02,1.31,3.6
		c-0.26,4.08-4.04,8.54-8.25,9.74c0,0-0.04,0.01-0.07,0.02l-17.28,4.93c-1.31,0.37-2.36,1.36-2.82,2.64l-1.1,3.07
		c-0.02,0.05-0.03,0.09-0.04,0.14l-1.28,3.55c-0.33,0.91-0.21,1.87,0.32,2.63c0.52,0.74,1.34,1.16,2.27,1.16
		c1.3,0,2.51-0.87,2.96-2.11l2.01-5.58c0.04-0.11,0.14-0.2,0.25-0.23l16.07-4.54c6.78-1.93,12.42-8.69,12.86-15.39
		C95.14,61.76,93.94,58.8,91.53,56.92z"/>
	<path class="st1" d="M91.53,56.92C89.93,55.66,87.87,55,85.59,55c-1.16,0-2.36,0.17-3.56,0.52l-5.94,1.68
		c-0.07,0-0.1-0.03-0.12-0.06c-0.04-0.06-0.03-0.13-0.01-0.19L86.25,28.3c1.25-3.52,0.97-7.02-0.78-9.59
		c-1.72-2.53-4.59-3.93-8.09-3.93c-2.06,0-4.18,0.48-6.28,1.43c-0.05,0.02-0.09,0.03-0.13,0.03c-0.05,0-0.09-0.02-0.11-0.05
		c-0.03-0.03-0.04-0.08-0.03-0.15c0.38-2.64-0.11-5.05-1.42-6.98c-1.72-2.53-4.59-3.93-8.09-3.93c-5.16,0-10.67,3.07-14.03,7.81
		c-0.06,0.09-0.16,0.14-0.25,0.14c-0.08,0-0.12-0.04-0.13-0.05c-1.75-1.71-4.16-2.62-6.98-2.62c-6.7,0-13.8,5.21-16.16,11.85
		c0,0.01-5.08,14.03-5.11,14.13c-1.14,3.21-4.36,6.18-7.83,7.23c-0.03,0.01-0.07-0.01-0.07-0.01H-47v6.11H9.48
		c0.09,0.03,0.58,0.01,0.67,0h0l0,0c6.1-0.93,11.98-5.8,14.07-11.67c0-0.01,0.01-0.02,5.11-14.13c1.47-4.13,6.15-7.62,10.23-7.62
		c1.58,0,2.82,0.55,3.5,1.54c0.74,1.09,0.81,2.66,0.18,4.42l-3.57,10.04l-5.35,15.15c-0.21,0.59-0.12,1.23,0.22,1.72
		c0.34,0.49,0.89,0.77,1.5,0.77h2.07c0.85,0,1.62-0.55,1.91-1.36l2.37-6.66l5.39-15.07c0,0,2.93-8.26,2.94-8.28
		c1.49-4.1,6.15-7.55,10.21-7.55c1.58,0,2.82,0.55,3.5,1.54c0.74,1.09,0.81,2.66,0.18,4.42l-3.57,10.04l-4.72,13.4l-2.51,7.05
		c-0.21,0.59-0.13,1.23,0.22,1.72c0.34,0.49,0.89,0.77,1.5,0.77h2.05c0.85,0,1.62-0.55,1.91-1.36l4.33-12.11l2.92-8.21
		c0.01-0.02,0.01-0.05,0.02-0.07c1.49-4.1,6.15-7.55,10.21-7.55c1.58,0,2.82,0.55,3.5,1.54c0.74,1.09,0.81,2.66,0.18,4.42
		l-3.57,10.03L68.9,59.52c-0.02,0.04-0.04,0.07-0.05,0.11l-1.04,2.9c-0.21,0.6-0.14,1.23,0.21,1.73c0.34,0.48,0.9,0.77,1.5,0.77
		c0.18,0,0.37-0.03,0.55-0.08l13.25-3.78c0.68-0.19,1.32-0.29,1.93-0.29c0.99,0,1.82,0.25,2.46,0.76c0.95,0.74,1.41,2.02,1.31,3.6
		c-0.26,4.08-4.04,8.54-8.25,9.74c0,0-0.04,0.01-0.07,0.02l-17.28,4.93c-1.31,0.37-2.36,1.36-2.82,2.64l-1.1,3.07
		c-0.02,0.05-0.03,0.09-0.04,0.14l-1.28,3.55c-0.33,0.91-0.21,1.87,0.32,2.63c0.52,0.74,1.34,1.16,2.27,1.16
		c1.3,0,2.51-0.87,2.96-2.11l2.01-5.58c0.04-0.11,0.14-0.2,0.25-0.23l16.07-4.54c6.78-1.93,12.42-8.69,12.86-15.39
		C95.14,61.76,93.94,58.8,91.53,56.92z"/>
	<path class="st1" d="M91.53,56.92C89.93,55.66,87.87,55,85.59,55c-1.16,0-2.36,0.17-3.56,0.52l-5.94,1.68
		c-0.07,0-0.1-0.03-0.12-0.06c-0.04-0.06-0.03-0.13-0.01-0.19L86.25,28.3c1.25-3.52,0.97-7.02-0.78-9.59
		c-1.72-2.53-4.59-3.93-8.09-3.93c-2.06,0-4.18,0.48-6.28,1.43c-0.05,0.02-0.09,0.03-0.13,0.03c-0.05,0-0.09-0.02-0.11-0.05
		c-0.03-0.03-0.04-0.08-0.03-0.15c0.38-2.64-0.11-5.05-1.42-6.98c-1.72-2.53-4.59-3.93-8.09-3.93c-5.16,0-10.67,3.07-14.03,7.81
		c-0.06,0.09-0.16,0.14-0.25,0.14c-0.08,0-0.12-0.04-0.13-0.05c-1.75-1.71-4.16-2.62-6.98-2.62c-6.7,0-13.8,5.21-16.16,11.85
		c0,0.01-5.08,14.03-5.11,14.13c-1.14,3.21-4.36,6.18-7.83,7.23c-0.03,0.01-0.07-0.01-0.07-0.01H-47v6.11H9.48
		c0.09,0.03,0.58,0.01,0.67,0h0l0,0c6.1-0.93,11.98-5.8,14.07-11.67c0-0.01,0.01-0.02,5.11-14.13c1.47-4.13,6.15-7.62,10.23-7.62
		c1.58,0,2.82,0.55,3.5,1.54c0.74,1.09,0.81,2.66,0.18,4.42l-3.57,10.04l-5.35,15.15c-0.21,0.59-0.12,1.23,0.22,1.72
		c0.34,0.49,0.89,0.77,1.5,0.77h2.07c0.85,0,1.62-0.55,1.91-1.36l2.37-6.66l5.39-15.07c0,0,2.93-8.26,2.94-8.28
		c1.49-4.1,6.15-7.55,10.21-7.55c1.58,0,2.82,0.55,3.5,1.54c0.74,1.09,0.81,2.66,0.18,4.42l-3.57,10.04l-4.72,13.4l-2.51,7.05
		c-0.21,0.59-0.13,1.23,0.22,1.72c0.34,0.49,0.89,0.77,1.5,0.77h2.05c0.85,0,1.62-0.55,1.91-1.36l4.33-12.11l2.92-8.21
		c0.01-0.02,0.01-0.05,0.02-0.07c1.49-4.1,6.15-7.55,10.21-7.55c1.58,0,2.82,0.55,3.5,1.54c0.74,1.09,0.81,2.66,0.18,4.42
		l-3.57,10.03L68.9,59.52c-0.02,0.04-0.04,0.07-0.05,0.11l-1.04,2.9c-0.21,0.6-0.14,1.23,0.21,1.73c0.34,0.48,0.9,0.77,1.5,0.77
		c0.18,0,0.37-0.03,0.55-0.08l13.25-3.78c0.68-0.19,1.32-0.29,1.93-0.29c0.99,0,1.82,0.25,2.46,0.76c0.95,0.74,1.41,2.02,1.31,3.6
		c-0.26,4.08-4.04,8.54-8.25,9.74c0,0-0.04,0.01-0.07,0.02l-17.28,4.93c-1.31,0.37-2.36,1.36-2.82,2.64l-1.1,3.07
		c-0.02,0.05-0.03,0.09-0.04,0.14l-1.28,3.55c-0.33,0.91-0.21,1.87,0.32,2.63c0.52,0.74,1.34,1.16,2.27,1.16
		c1.3,0,2.51-0.87,2.96-2.11l2.01-5.58c0.04-0.11,0.14-0.2,0.25-0.23l16.07-4.54c6.78-1.93,12.42-8.69,12.86-15.39
		C95.14,61.76,93.94,58.8,91.53,56.92z"/>
	<path class="st1" d="M91.53,56.92C89.93,55.66,87.87,55,85.59,55c-1.16,0-2.36,0.17-3.56,0.52l-5.94,1.68
		c-0.07,0-0.1-0.03-0.12-0.06c-0.04-0.06-0.03-0.13-0.01-0.19L86.25,28.3c1.25-3.52,0.97-7.02-0.78-9.59
		c-1.72-2.53-4.59-3.93-8.09-3.93c-2.06,0-4.18,0.48-6.28,1.43c-0.05,0.02-0.09,0.03-0.13,0.03c-0.05,0-0.09-0.02-0.11-0.05
		c-0.03-0.03-0.04-0.08-0.03-0.15c0.38-2.64-0.11-5.05-1.42-6.98c-1.72-2.53-4.59-3.93-8.09-3.93c-5.16,0-10.67,3.07-14.03,7.81
		c-0.06,0.09-0.16,0.14-0.25,0.14c-0.08,0-0.12-0.04-0.13-0.05c-1.75-1.71-4.16-2.62-6.98-2.62c-6.7,0-13.8,5.21-16.16,11.85
		c0,0.01-5.08,14.03-5.11,14.13c-1.14,3.21-4.36,6.18-7.83,7.23c-0.03,0.01-0.07-0.01-0.07-0.01H-47v6.11H9.48
		c0.09,0.03,0.58,0.01,0.67,0h0l0,0c6.1-0.93,11.98-5.8,14.07-11.67c0-0.01,0.01-0.02,5.11-14.13c1.47-4.13,6.15-7.62,10.23-7.62
		c1.58,0,2.82,0.55,3.5,1.54c0.74,1.09,0.81,2.66,0.18,4.42l-3.57,10.04l-5.35,15.15c-0.21,0.59-0.12,1.23,0.22,1.72
		c0.34,0.49,0.89,0.77,1.5,0.77h2.07c0.85,0,1.62-0.55,1.91-1.36l2.37-6.66l5.39-15.07c0,0,2.93-8.26,2.94-8.28
		c1.49-4.1,6.15-7.55,10.21-7.55c1.58,0,2.82,0.55,3.5,1.54c0.74,1.09,0.81,2.66,0.18,4.42l-3.57,10.04l-4.72,13.4l-2.51,7.05
		c-0.21,0.59-0.13,1.23,0.22,1.72c0.34,0.49,0.89,0.77,1.5,0.77h2.05c0.85,0,1.62-0.55,1.91-1.36l4.33-12.11l2.92-8.21
		c0.01-0.02,0.01-0.05,0.02-0.07c1.49-4.1,6.15-7.55,10.21-7.55c1.58,0,2.82,0.55,3.5,1.54c0.74,1.09,0.81,2.66,0.18,4.42
		l-3.57,10.03L68.9,59.52c-0.02,0.04-0.04,0.07-0.05,0.11l-1.04,2.9c-0.21,0.6-0.14,1.23,0.21,1.73c0.34,0.48,0.9,0.77,1.5,0.77
		c0.18,0,0.37-0.03,0.55-0.08l13.25-3.78c0.68-0.19,1.32-0.29,1.93-0.29c0.99,0,1.82,0.25,2.46,0.76c0.95,0.74,1.41,2.02,1.31,3.6
		c-0.26,4.08-4.04,8.54-8.25,9.74c0,0-0.04,0.01-0.07,0.02l-17.28,4.93c-1.31,0.37-2.36,1.36-2.82,2.64l-1.1,3.07
		c-0.02,0.05-0.03,0.09-0.04,0.14l-1.28,3.55c-0.33,0.91-0.21,1.87,0.32,2.63c0.52,0.74,1.34,1.16,2.27,1.16
		c1.3,0,2.51-0.87,2.96-2.11l2.01-5.58c0.04-0.11,0.14-0.2,0.25-0.23l16.07-4.54c6.78-1.93,12.42-8.69,12.86-15.39
		C95.14,61.76,93.94,58.8,91.53,56.92z"/>
	<path class="st1" d="M91.53,56.92C89.93,55.66,87.87,55,85.59,55c-1.16,0-2.36,0.17-3.56,0.52l-5.94,1.68
		c-0.07,0-0.1-0.03-0.12-0.06c-0.04-0.06-0.03-0.13-0.01-0.19L86.25,28.3c1.25-3.52,0.97-7.02-0.78-9.59
		c-1.72-2.53-4.59-3.93-8.09-3.93c-2.06,0-4.18,0.48-6.28,1.43c-0.05,0.02-0.09,0.03-0.13,0.03c-0.05,0-0.09-0.02-0.11-0.05
		c-0.03-0.03-0.04-0.08-0.03-0.15c0.38-2.64-0.11-5.05-1.42-6.98c-1.72-2.53-4.59-3.93-8.09-3.93c-5.16,0-10.67,3.07-14.03,7.81
		c-0.06,0.09-0.16,0.14-0.25,0.14c-0.08,0-0.12-0.04-0.13-0.05c-1.75-1.71-4.16-2.62-6.98-2.62c-6.7,0-13.8,5.21-16.16,11.85
		c0,0.01-5.08,14.03-5.11,14.13c-1.14,3.21-4.36,6.18-7.83,7.23c-0.03,0.01-0.07-0.01-0.07-0.01H-47v6.11H9.48
		c0.09,0.03,0.58,0.01,0.67,0h0l0,0c6.1-0.93,11.98-5.8,14.07-11.67c0-0.01,0.01-0.02,5.11-14.13c1.47-4.13,6.15-7.62,10.23-7.62
		c1.58,0,2.82,0.55,3.5,1.54c0.74,1.09,0.81,2.66,0.18,4.42l-3.57,10.04l-5.35,15.15c-0.21,0.59-0.12,1.23,0.22,1.72
		c0.34,0.49,0.89,0.77,1.5,0.77h2.07c0.85,0,1.62-0.55,1.91-1.36l2.37-6.66l5.39-15.07c0,0,2.93-8.26,2.94-8.28
		c1.49-4.1,6.15-7.55,10.21-7.55c1.58,0,2.82,0.55,3.5,1.54c0.74,1.09,0.81,2.66,0.18,4.42l-3.57,10.04l-4.72,13.4l-2.51,7.05
		c-0.21,0.59-0.13,1.23,0.22,1.72c0.34,0.49,0.89,0.77,1.5,0.77h2.05c0.85,0,1.62-0.55,1.91-1.36l4.33-12.11l2.92-8.21
		c0.01-0.02,0.01-0.05,0.02-0.07c1.49-4.1,6.15-7.55,10.21-7.55c1.58,0,2.82,0.55,3.5,1.54c0.74,1.09,0.81,2.66,0.18,4.42
		l-3.57,10.03L68.9,59.52c-0.02,0.04-0.04,0.07-0.05,0.11l-1.04,2.9c-0.21,0.6-0.14,1.23,0.21,1.73c0.34,0.48,0.9,0.77,1.5,0.77
		c0.18,0,0.37-0.03,0.55-0.08l13.25-3.78c0.68-0.19,1.32-0.29,1.93-0.29c0.99,0,1.82,0.25,2.46,0.76c0.95,0.74,1.41,2.02,1.31,3.6
		c-0.26,4.08-4.04,8.54-8.25,9.74c0,0-0.04,0.01-0.07,0.02l-17.28,4.93c-1.31,0.37-2.36,1.36-2.82,2.64l-1.1,3.07
		c-0.02,0.05-0.03,0.09-0.04,0.14l-1.28,3.55c-0.33,0.91-0.21,1.87,0.32,2.63c0.52,0.74,1.34,1.16,2.27,1.16
		c1.3,0,2.51-0.87,2.96-2.11l2.01-5.58c0.04-0.11,0.14-0.2,0.25-0.23l16.07-4.54c6.78-1.93,12.42-8.69,12.86-15.39
		C95.14,61.76,93.94,58.8,91.53,56.92z"/>
	<path class="st1" d="M91.53,56.92C89.93,55.66,87.87,55,85.59,55c-1.16,0-2.36,0.17-3.56,0.52l-5.94,1.68
		c-0.07,0-0.1-0.03-0.12-0.06c-0.04-0.06-0.03-0.13-0.01-0.19L86.25,28.3c1.25-3.52,0.97-7.02-0.78-9.59
		c-1.72-2.53-4.59-3.93-8.09-3.93c-2.06,0-4.18,0.48-6.28,1.43c-0.05,0.02-0.09,0.03-0.13,0.03c-0.05,0-0.09-0.02-0.11-0.05
		c-0.03-0.03-0.04-0.08-0.03-0.15c0.38-2.64-0.11-5.05-1.42-6.98c-1.72-2.53-4.59-3.93-8.09-3.93c-5.16,0-10.67,3.07-14.03,7.81
		c-0.06,0.09-0.16,0.14-0.25,0.14c-0.08,0-0.12-0.04-0.13-0.05c-1.75-1.71-4.16-2.62-6.98-2.62c-6.7,0-13.8,5.21-16.16,11.85
		c0,0.01-5.08,14.03-5.11,14.13c-1.14,3.21-4.36,6.18-7.83,7.23c-0.03,0.01-0.07-0.01-0.07-0.01H-47v6.11H9.48
		c0.09,0.03,0.58,0.01,0.67,0h0l0,0c6.1-0.93,11.98-5.8,14.07-11.67c0-0.01,0.01-0.02,5.11-14.13c1.47-4.13,6.15-7.62,10.23-7.62
		c1.58,0,2.82,0.55,3.5,1.54c0.74,1.09,0.81,2.66,0.18,4.42l-3.57,10.04l-5.35,15.15c-0.21,0.59-0.12,1.23,0.22,1.72
		c0.34,0.49,0.89,0.77,1.5,0.77h2.07c0.85,0,1.62-0.55,1.91-1.36l2.37-6.66l5.39-15.07c0,0,2.93-8.26,2.94-8.28
		c1.49-4.1,6.15-7.55,10.21-7.55c1.58,0,2.82,0.55,3.5,1.54c0.74,1.09,0.81,2.66,0.18,4.42l-3.57,10.04l-4.72,13.4l-2.51,7.05
		c-0.21,0.59-0.13,1.23,0.22,1.72c0.34,0.49,0.89,0.77,1.5,0.77h2.05c0.85,0,1.62-0.55,1.91-1.36l4.33-12.11l2.92-8.21
		c0.01-0.02,0.01-0.05,0.02-0.07c1.49-4.1,6.15-7.55,10.21-7.55c1.58,0,2.82,0.55,3.5,1.54c0.74,1.09,0.81,2.66,0.18,4.42
		l-3.57,10.03L68.9,59.52c-0.02,0.04-0.04,0.07-0.05,0.11l-1.04,2.9c-0.21,0.6-0.14,1.23,0.21,1.73c0.34,0.48,0.9,0.77,1.5,0.77
		c0.18,0,0.37-0.03,0.55-0.08l13.25-3.78c0.68-0.19,1.32-0.29,1.93-0.29c0.99,0,1.82,0.25,2.46,0.76c0.95,0.74,1.41,2.02,1.31,3.6
		c-0.26,4.08-4.04,8.54-8.25,9.74c0,0-0.04,0.01-0.07,0.02l-17.28,4.93c-1.31,0.37-2.36,1.36-2.82,2.64l-1.1,3.07
		c-0.02,0.05-0.03,0.09-0.04,0.14l-1.28,3.55c-0.33,0.91-0.21,1.87,0.32,2.63c0.52,0.74,1.34,1.16,2.27,1.16
		c1.3,0,2.51-0.87,2.96-2.11l2.01-5.58c0.04-0.11,0.14-0.2,0.25-0.23l16.07-4.54c6.78-1.93,12.42-8.69,12.86-15.39
		C95.14,61.76,93.94,58.8,91.53,56.92z"/>
	<path class="st1" d="M91.53,56.92C89.93,55.66,87.87,55,85.59,55c-1.16,0-2.36,0.17-3.56,0.52l-5.94,1.68
		c-0.07,0-0.1-0.03-0.12-0.06c-0.04-0.06-0.03-0.13-0.01-0.19L86.25,28.3c1.25-3.52,0.97-7.02-0.78-9.59
		c-1.72-2.53-4.59-3.93-8.09-3.93c-2.06,0-4.18,0.48-6.28,1.43c-0.05,0.02-0.09,0.03-0.13,0.03c-0.05,0-0.09-0.02-0.11-0.05
		c-0.03-0.03-0.04-0.08-0.03-0.15c0.38-2.64-0.11-5.05-1.42-6.98c-1.72-2.53-4.59-3.93-8.09-3.93c-5.16,0-10.67,3.07-14.03,7.81
		c-0.06,0.09-0.16,0.14-0.25,0.14c-0.08,0-0.12-0.04-0.13-0.05c-1.75-1.71-4.16-2.62-6.98-2.62c-6.7,0-13.8,5.21-16.16,11.85
		c0,0.01-5.08,14.03-5.11,14.13c-1.14,3.21-4.36,6.18-7.83,7.23c-0.03,0.01-0.07-0.01-0.07-0.01H-47v6.11H9.48
		c0.09,0.03,0.58,0.01,0.67,0h0l0,0c6.1-0.93,11.98-5.8,14.07-11.67c0-0.01,0.01-0.02,5.11-14.13c1.47-4.13,6.15-7.62,10.23-7.62
		c1.58,0,2.82,0.55,3.5,1.54c0.74,1.09,0.81,2.66,0.18,4.42l-3.57,10.04l-5.35,15.15c-0.21,0.59-0.12,1.23,0.22,1.72
		c0.34,0.49,0.89,0.77,1.5,0.77h2.07c0.85,0,1.62-0.55,1.91-1.36l2.37-6.66l5.39-15.07c0,0,2.93-8.26,2.94-8.28
		c1.49-4.1,6.15-7.55,10.21-7.55c1.58,0,2.82,0.55,3.5,1.54c0.74,1.09,0.81,2.66,0.18,4.42l-3.57,10.04l-4.72,13.4l-2.51,7.05
		c-0.21,0.59-0.13,1.23,0.22,1.72c0.34,0.49,0.89,0.77,1.5,0.77h2.05c0.85,0,1.62-0.55,1.91-1.36l4.33-12.11l2.92-8.21
		c0.01-0.02,0.01-0.05,0.02-0.07c1.49-4.1,6.15-7.55,10.21-7.55c1.58,0,2.82,0.55,3.5,1.54c0.74,1.09,0.81,2.66,0.18,4.42
		l-3.57,10.03L68.9,59.52c-0.02,0.04-0.04,0.07-0.05,0.11l-1.04,2.9c-0.21,0.6-0.14,1.23,0.21,1.73c0.34,0.48,0.9,0.77,1.5,0.77
		c0.18,0,0.37-0.03,0.55-0.08l13.25-3.78c0.68-0.19,1.32-0.29,1.93-0.29c0.99,0,1.82,0.25,2.46,0.76c0.95,0.74,1.41,2.02,1.31,3.6
		c-0.26,4.08-4.04,8.54-8.25,9.74c0,0-0.04,0.01-0.07,0.02l-17.28,4.93c-1.31,0.37-2.36,1.36-2.82,2.64l-1.1,3.07
		c-0.02,0.05-0.03,0.09-0.04,0.14l-1.28,3.55c-0.33,0.91-0.21,1.87,0.32,2.63c0.52,0.74,1.34,1.16,2.27,1.16
		c1.3,0,2.51-0.87,2.96-2.11l2.01-5.58c0.04-0.11,0.14-0.2,0.25-0.23l16.07-4.54c6.78-1.93,12.42-8.69,12.86-15.39
		C95.14,61.76,93.94,58.8,91.53,56.92z"/>
	<path class="st1" d="M91.53,56.92C89.93,55.66,87.87,55,85.59,55c-1.16,0-2.36,0.17-3.56,0.52l-5.94,1.68
		c-0.07,0-0.1-0.03-0.12-0.06c-0.04-0.06-0.03-0.13-0.01-0.19L86.25,28.3c1.25-3.52,0.97-7.02-0.78-9.59
		c-1.72-2.53-4.59-3.93-8.09-3.93c-2.06,0-4.18,0.48-6.28,1.43c-0.05,0.02-0.09,0.03-0.13,0.03c-0.05,0-0.09-0.02-0.11-0.05
		c-0.03-0.03-0.04-0.08-0.03-0.15c0.38-2.64-0.11-5.05-1.42-6.98c-1.72-2.53-4.59-3.93-8.09-3.93c-5.16,0-10.67,3.07-14.03,7.81
		c-0.06,0.09-0.16,0.14-0.25,0.14c-0.08,0-0.12-0.04-0.13-0.05c-1.75-1.71-4.16-2.62-6.98-2.62c-6.7,0-13.8,5.21-16.16,11.85
		c0,0.01-5.08,14.03-5.11,14.13c-1.14,3.21-4.36,6.18-7.83,7.23c-0.03,0.01-0.07-0.01-0.07-0.01H-47v6.11H9.48
		c0.09,0.03,0.58,0.01,0.67,0h0l0,0c6.1-0.93,11.98-5.8,14.07-11.67c0-0.01,0.01-0.02,5.11-14.13c1.47-4.13,6.15-7.62,10.23-7.62
		c1.58,0,2.82,0.55,3.5,1.54c0.74,1.09,0.81,2.66,0.18,4.42l-3.57,10.04l-5.35,15.15c-0.21,0.59-0.12,1.23,0.22,1.72
		c0.34,0.49,0.89,0.77,1.5,0.77h2.07c0.85,0,1.62-0.55,1.91-1.36l2.37-6.66l5.39-15.07c0,0,2.93-8.26,2.94-8.28
		c1.49-4.1,6.15-7.55,10.21-7.55c1.58,0,2.82,0.55,3.5,1.54c0.74,1.09,0.81,2.66,0.18,4.42l-3.57,10.04l-4.72,13.4l-2.51,7.05
		c-0.21,0.59-0.13,1.23,0.22,1.72c0.34,0.49,0.89,0.77,1.5,0.77h2.05c0.85,0,1.62-0.55,1.91-1.36l4.33-12.11l2.92-8.21
		c0.01-0.02,0.01-0.05,0.02-0.07c1.49-4.1,6.15-7.55,10.21-7.55c1.58,0,2.82,0.55,3.5,1.54c0.74,1.09,0.81,2.66,0.18,4.42
		l-3.57,10.03L68.9,59.52c-0.02,0.04-0.04,0.07-0.05,0.11l-1.04,2.9c-0.21,0.6-0.14,1.23,0.21,1.73c0.34,0.48,0.9,0.77,1.5,0.77
		c0.18,0,0.37-0.03,0.55-0.08l13.25-3.78c0.68-0.19,1.32-0.29,1.93-0.29c0.99,0,1.82,0.25,2.46,0.76c0.95,0.74,1.41,2.02,1.31,3.6
		c-0.26,4.08-4.04,8.54-8.25,9.74c0,0-0.04,0.01-0.07,0.02l-17.28,4.93c-1.31,0.37-2.36,1.36-2.82,2.64l-1.1,3.07
		c-0.02,0.05-0.03,0.09-0.04,0.14l-1.28,3.55c-0.33,0.91-0.21,1.87,0.32,2.63c0.52,0.74,1.34,1.16,2.27,1.16
		c1.3,0,2.51-0.87,2.96-2.11l2.01-5.58c0.04-0.11,0.14-0.2,0.25-0.23l16.07-4.54c6.78-1.93,12.42-8.69,12.86-15.39
		C95.14,61.76,93.94,58.8,91.53,56.92z"/>
	<path class="st1" d="M91.53,56.92C89.93,55.66,87.87,55,85.59,55c-1.16,0-2.36,0.17-3.56,0.52l-5.94,1.68
		c-0.07,0-0.1-0.03-0.12-0.06c-0.04-0.06-0.03-0.13-0.01-0.19L86.25,28.3c1.25-3.52,0.97-7.02-0.78-9.59
		c-1.72-2.53-4.59-3.93-8.09-3.93c-2.06,0-4.18,0.48-6.28,1.43c-0.05,0.02-0.09,0.03-0.13,0.03c-0.05,0-0.09-0.02-0.11-0.05
		c-0.03-0.03-0.04-0.08-0.03-0.15c0.38-2.64-0.11-5.05-1.42-6.98c-1.72-2.53-4.59-3.93-8.09-3.93c-5.16,0-10.67,3.07-14.03,7.81
		c-0.06,0.09-0.16,0.14-0.25,0.14c-0.08,0-0.12-0.04-0.13-0.05c-1.75-1.71-4.16-2.62-6.98-2.62c-6.7,0-13.8,5.21-16.16,11.85
		c0,0.01-5.08,14.03-5.11,14.13c-1.14,3.21-4.36,6.18-7.83,7.23c-0.03,0.01-0.07-0.01-0.07-0.01H-47v6.11H9.48
		c0.09,0.03,0.58,0.01,0.67,0h0l0,0c6.1-0.93,11.98-5.8,14.07-11.67c0-0.01,0.01-0.02,5.11-14.13c1.47-4.13,6.15-7.62,10.23-7.62
		c1.58,0,2.82,0.55,3.5,1.54c0.74,1.09,0.81,2.66,0.18,4.42l-3.57,10.04l-5.35,15.15c-0.21,0.59-0.12,1.23,0.22,1.72
		c0.34,0.49,0.89,0.77,1.5,0.77h2.07c0.85,0,1.62-0.55,1.91-1.36l2.37-6.66l5.39-15.07c0,0,2.93-8.26,2.94-8.28
		c1.49-4.1,6.15-7.55,10.21-7.55c1.58,0,2.82,0.55,3.5,1.54c0.74,1.09,0.81,2.66,0.18,4.42l-3.57,10.04l-4.72,13.4l-2.51,7.05
		c-0.21,0.59-0.13,1.23,0.22,1.72c0.34,0.49,0.89,0.77,1.5,0.77h2.05c0.85,0,1.62-0.55,1.91-1.36l4.33-12.11l2.92-8.21
		c0.01-0.02,0.01-0.05,0.02-0.07c1.49-4.1,6.15-7.55,10.21-7.55c1.58,0,2.82,0.55,3.5,1.54c0.74,1.09,0.81,2.66,0.18,4.42
		l-3.57,10.03L68.9,59.52c-0.02,0.04-0.04,0.07-0.05,0.11l-1.04,2.9c-0.21,0.6-0.14,1.23,0.21,1.73c0.34,0.48,0.9,0.77,1.5,0.77
		c0.18,0,0.37-0.03,0.55-0.08l13.25-3.78c0.68-0.19,1.32-0.29,1.93-0.29c0.99,0,1.82,0.25,2.46,0.76c0.95,0.74,1.41,2.02,1.31,3.6
		c-0.26,4.08-4.04,8.54-8.25,9.74c0,0-0.04,0.01-0.07,0.02l-17.28,4.93c-1.31,0.37-2.36,1.36-2.82,2.64l-1.1,3.07
		c-0.02,0.05-0.03,0.09-0.04,0.14l-1.28,3.55c-0.33,0.91-0.21,1.87,0.32,2.63c0.52,0.74,1.34,1.16,2.27,1.16
		c1.3,0,2.51-0.87,2.96-2.11l2.01-5.58c0.04-0.11,0.14-0.2,0.25-0.23l16.07-4.54c6.78-1.93,12.42-8.69,12.86-15.39
		C95.14,61.76,93.94,58.8,91.53,56.92z"/>
	<path class="st1" d="M91.53,56.92C89.93,55.66,87.87,55,85.59,55c-1.16,0-2.36,0.17-3.56,0.52l-5.94,1.68
		c-0.07,0-0.1-0.03-0.12-0.06c-0.04-0.06-0.03-0.13-0.01-0.19L86.25,28.3c1.25-3.52,0.97-7.02-0.78-9.59
		c-1.72-2.53-4.59-3.93-8.09-3.93c-2.06,0-4.18,0.48-6.28,1.43c-0.05,0.02-0.09,0.03-0.13,0.03c-0.05,0-0.09-0.02-0.11-0.05
		c-0.03-0.03-0.04-0.08-0.03-0.15c0.38-2.64-0.11-5.05-1.42-6.98c-1.72-2.53-4.59-3.93-8.09-3.93c-5.16,0-10.67,3.07-14.03,7.81
		c-0.06,0.09-0.16,0.14-0.25,0.14c-0.08,0-0.12-0.04-0.13-0.05c-1.75-1.71-4.16-2.62-6.98-2.62c-6.7,0-13.8,5.21-16.16,11.85
		c0,0.01-5.08,14.03-5.11,14.13c-1.14,3.21-4.36,6.18-7.83,7.23c-0.03,0.01-0.07-0.01-0.07-0.01H-47v6.11H9.48
		c0.09,0.03,0.58,0.01,0.67,0h0l0,0c6.1-0.93,11.98-5.8,14.07-11.67c0-0.01,0.01-0.02,5.11-14.13c1.47-4.13,6.15-7.62,10.23-7.62
		c1.58,0,2.82,0.55,3.5,1.54c0.74,1.09,0.81,2.66,0.18,4.42l-3.57,10.04l-5.35,15.15c-0.21,0.59-0.12,1.23,0.22,1.72
		c0.34,0.49,0.89,0.77,1.5,0.77h2.07c0.85,0,1.62-0.55,1.91-1.36l2.37-6.66l5.39-15.07c0,0,2.93-8.26,2.94-8.28
		c1.49-4.1,6.15-7.55,10.21-7.55c1.58,0,2.82,0.55,3.5,1.54c0.74,1.09,0.81,2.66,0.18,4.42l-3.57,10.04l-4.72,13.4l-2.51,7.05
		c-0.21,0.59-0.13,1.23,0.22,1.72c0.34,0.49,0.89,0.77,1.5,0.77h2.05c0.85,0,1.62-0.55,1.91-1.36l4.33-12.11l2.92-8.21
		c0.01-0.02,0.01-0.05,0.02-0.07c1.49-4.1,6.15-7.55,10.21-7.55c1.58,0,2.82,0.55,3.5,1.54c0.74,1.09,0.81,2.66,0.18,4.42
		l-3.57,10.03L68.9,59.52c-0.02,0.04-0.04,0.07-0.05,0.11l-1.04,2.9c-0.21,0.6-0.14,1.23,0.21,1.73c0.34,0.48,0.9,0.77,1.5,0.77
		c0.18,0,0.37-0.03,0.55-0.08l13.25-3.78c0.68-0.19,1.32-0.29,1.93-0.29c0.99,0,1.82,0.25,2.46,0.76c0.95,0.74,1.41,2.02,1.31,3.6
		c-0.26,4.08-4.04,8.54-8.25,9.74c0,0-0.04,0.01-0.07,0.02l-17.28,4.93c-1.31,0.37-2.36,1.36-2.82,2.64l-1.1,3.07
		c-0.02,0.05-0.03,0.09-0.04,0.14l-1.28,3.55c-0.33,0.91-0.21,1.87,0.32,2.63c0.52,0.74,1.34,1.16,2.27,1.16
		c1.3,0,2.51-0.87,2.96-2.11l2.01-5.58c0.04-0.11,0.14-0.2,0.25-0.23l16.07-4.54c6.78-1.93,12.42-8.69,12.86-15.39
		C95.14,61.76,93.94,58.8,91.53,56.92z"/>
	<path class="st1" d="M91.53,56.92C89.93,55.66,87.87,55,85.59,55c-1.16,0-2.36,0.17-3.56,0.52l-5.94,1.68
		c-0.07,0-0.1-0.03-0.12-0.06c-0.04-0.06-0.03-0.13-0.01-0.19L86.25,28.3c1.25-3.52,0.97-7.02-0.78-9.59
		c-1.72-2.53-4.59-3.93-8.09-3.93c-2.06,0-4.18,0.48-6.28,1.43c-0.05,0.02-0.09,0.03-0.13,0.03c-0.05,0-0.09-0.02-0.11-0.05
		c-0.03-0.03-0.04-0.08-0.03-0.15c0.38-2.64-0.11-5.05-1.42-6.98c-1.72-2.53-4.59-3.93-8.09-3.93c-5.16,0-10.67,3.07-14.03,7.81
		c-0.06,0.09-0.16,0.14-0.25,0.14c-0.08,0-0.12-0.04-0.13-0.05c-1.75-1.71-4.16-2.62-6.98-2.62c-6.7,0-13.8,5.21-16.16,11.85
		c0,0.01-5.08,14.03-5.11,14.13c-1.14,3.21-4.36,6.18-7.83,7.23c-0.03,0.01-0.07-0.01-0.07-0.01H-47v6.11H9.48
		c0.09,0.03,0.58,0.01,0.67,0h0l0,0c6.1-0.93,11.98-5.8,14.07-11.67c0-0.01,0.01-0.02,5.11-14.13c1.47-4.13,6.15-7.62,10.23-7.62
		c1.58,0,2.82,0.55,3.5,1.54c0.74,1.09,0.81,2.66,0.18,4.42l-3.57,10.04l-5.35,15.15c-0.21,0.59-0.12,1.23,0.22,1.72
		c0.34,0.49,0.89,0.77,1.5,0.77h2.07c0.85,0,1.62-0.55,1.91-1.36l2.37-6.66l5.39-15.07c0,0,2.93-8.26,2.94-8.28
		c1.49-4.1,6.15-7.55,10.21-7.55c1.58,0,2.82,0.55,3.5,1.54c0.74,1.09,0.81,2.66,0.18,4.42l-3.57,10.04l-4.72,13.4l-2.51,7.05
		c-0.21,0.59-0.13,1.23,0.22,1.72c0.34,0.49,0.89,0.77,1.5,0.77h2.05c0.85,0,1.62-0.55,1.91-1.36l4.33-12.11l2.92-8.21
		c0.01-0.02,0.01-0.05,0.02-0.07c1.49-4.1,6.15-7.55,10.21-7.55c1.58,0,2.82,0.55,3.5,1.54c0.74,1.09,0.81,2.66,0.18,4.42
		l-3.57,10.03L68.9,59.52c-0.02,0.04-0.04,0.07-0.05,0.11l-1.04,2.9c-0.21,0.6-0.14,1.23,0.21,1.73c0.34,0.48,0.9,0.77,1.5,0.77
		c0.18,0,0.37-0.03,0.55-0.08l13.25-3.78c0.68-0.19,1.32-0.29,1.93-0.29c0.99,0,1.82,0.25,2.46,0.76c0.95,0.74,1.41,2.02,1.31,3.6
		c-0.26,4.08-4.04,8.54-8.25,9.74c0,0-0.04,0.01-0.07,0.02l-17.28,4.93c-1.31,0.37-2.36,1.36-2.82,2.64l-1.1,3.07
		c-0.02,0.05-0.03,0.09-0.04,0.14l-1.28,3.55c-0.33,0.91-0.21,1.87,0.32,2.63c0.52,0.74,1.34,1.16,2.27,1.16
		c1.3,0,2.51-0.87,2.96-2.11l2.01-5.58c0.04-0.11,0.14-0.2,0.25-0.23l16.07-4.54c6.78-1.93,12.42-8.69,12.86-15.39
		C95.14,61.76,93.94,58.8,91.53,56.92z"/>
	<path class="st1" d="M91.53,56.92C89.93,55.66,87.87,55,85.59,55c-1.16,0-2.36,0.17-3.56,0.52l-5.94,1.68
		c-0.07,0-0.1-0.03-0.12-0.06c-0.04-0.06-0.03-0.13-0.01-0.19L86.25,28.3c1.25-3.52,0.97-7.02-0.78-9.59
		c-1.72-2.53-4.59-3.93-8.09-3.93c-2.06,0-4.18,0.48-6.28,1.43c-0.05,0.02-0.09,0.03-0.13,0.03c-0.05,0-0.09-0.02-0.11-0.05
		c-0.03-0.03-0.04-0.08-0.03-0.15c0.38-2.64-0.11-5.05-1.42-6.98c-1.72-2.53-4.59-3.93-8.09-3.93c-5.16,0-10.67,3.07-14.03,7.81
		c-0.06,0.09-0.16,0.14-0.25,0.14c-0.08,0-0.12-0.04-0.13-0.05c-1.75-1.71-4.16-2.62-6.98-2.62c-6.7,0-13.8,5.21-16.16,11.85
		c0,0.01-5.08,14.03-5.11,14.13c-1.14,3.21-4.36,6.18-7.83,7.23c-0.03,0.01-0.07-0.01-0.07-0.01H-47v6.11H9.48
		c0.09,0.03,0.58,0.01,0.67,0h0l0,0c6.1-0.93,11.98-5.8,14.07-11.67c0-0.01,0.01-0.02,5.11-14.13c1.47-4.13,6.15-7.62,10.23-7.62
		c1.58,0,2.82,0.55,3.5,1.54c0.74,1.09,0.81,2.66,0.18,4.42l-3.57,10.04l-5.35,15.15c-0.21,0.59-0.12,1.23,0.22,1.72
		c0.34,0.49,0.89,0.77,1.5,0.77h2.07c0.85,0,1.62-0.55,1.91-1.36l2.37-6.66l5.39-15.07c0,0,2.93-8.26,2.94-8.28
		c1.49-4.1,6.15-7.55,10.21-7.55c1.58,0,2.82,0.55,3.5,1.54c0.74,1.09,0.81,2.66,0.18,4.42l-3.57,10.04l-4.72,13.4l-2.51,7.05
		c-0.21,0.59-0.13,1.23,0.22,1.72c0.34,0.49,0.89,0.77,1.5,0.77h2.05c0.85,0,1.62-0.55,1.91-1.36l4.33-12.11l2.92-8.21
		c0.01-0.02,0.01-0.05,0.02-0.07c1.49-4.1,6.15-7.55,10.21-7.55c1.58,0,2.82,0.55,3.5,1.54c0.74,1.09,0.81,2.66,0.18,4.42
		l-3.57,10.03L68.9,59.52c-0.02,0.04-0.04,0.07-0.05,0.11l-1.04,2.9c-0.21,0.6-0.14,1.23,0.21,1.73c0.34,0.48,0.9,0.77,1.5,0.77
		c0.18,0,0.37-0.03,0.55-0.08l13.25-3.78c0.68-0.19,1.32-0.29,1.93-0.29c0.99,0,1.82,0.25,2.46,0.76c0.95,0.74,1.41,2.02,1.31,3.6
		c-0.26,4.08-4.04,8.54-8.25,9.74c0,0-0.04,0.01-0.07,0.02l-17.28,4.93c-1.31,0.37-2.36,1.36-2.82,2.64l-1.1,3.07
		c-0.02,0.05-0.03,0.09-0.04,0.14l-1.28,3.55c-0.33,0.91-0.21,1.87,0.32,2.63c0.52,0.74,1.34,1.16,2.27,1.16
		c1.3,0,2.51-0.87,2.96-2.11l2.01-5.58c0.04-0.11,0.14-0.2,0.25-0.23l16.07-4.54c6.78-1.93,12.42-8.69,12.86-15.39
		C95.14,61.76,93.94,58.8,91.53,56.92z"/>
	<path class="st1" d="M91.53,56.92C89.93,55.66,87.87,55,85.59,55c-1.16,0-2.36,0.17-3.56,0.52l-5.94,1.68
		c-0.07,0-0.1-0.03-0.12-0.06c-0.04-0.06-0.03-0.13-0.01-0.19L86.25,28.3c1.25-3.52,0.97-7.02-0.78-9.59
		c-1.72-2.53-4.59-3.93-8.09-3.93c-2.06,0-4.18,0.48-6.28,1.43c-0.05,0.02-0.09,0.03-0.13,0.03c-0.05,0-0.09-0.02-0.11-0.05
		c-0.03-0.03-0.04-0.08-0.03-0.15c0.38-2.64-0.11-5.05-1.42-6.98c-1.72-2.53-4.59-3.93-8.09-3.93c-5.16,0-10.67,3.07-14.03,7.81
		c-0.06,0.09-0.16,0.14-0.25,0.14c-0.08,0-0.12-0.04-0.13-0.05c-1.75-1.71-4.16-2.62-6.98-2.62c-6.7,0-13.8,5.21-16.16,11.85
		c0,0.01-5.08,14.03-5.11,14.13c-1.14,3.21-4.36,6.18-7.83,7.23c-0.03,0.01-0.07-0.01-0.07-0.01H-47v6.11H9.48
		c0.09,0.03,0.58,0.01,0.67,0h0l0,0c6.1-0.93,11.98-5.8,14.07-11.67c0-0.01,0.01-0.02,5.11-14.13c1.47-4.13,6.15-7.62,10.23-7.62
		c1.58,0,2.82,0.55,3.5,1.54c0.74,1.09,0.81,2.66,0.18,4.42l-3.57,10.04l-5.35,15.15c-0.21,0.59-0.12,1.23,0.22,1.72
		c0.34,0.49,0.89,0.77,1.5,0.77h2.07c0.85,0,1.62-0.55,1.91-1.36l2.37-6.66l5.39-15.07c0,0,2.93-8.26,2.94-8.28
		c1.49-4.1,6.15-7.55,10.21-7.55c1.58,0,2.82,0.55,3.5,1.54c0.74,1.09,0.81,2.66,0.18,4.42l-3.57,10.04l-4.72,13.4l-2.51,7.05
		c-0.21,0.59-0.13,1.23,0.22,1.72c0.34,0.49,0.89,0.77,1.5,0.77h2.05c0.85,0,1.62-0.55,1.91-1.36l4.33-12.11l2.92-8.21
		c0.01-0.02,0.01-0.05,0.02-0.07c1.49-4.1,6.15-7.55,10.21-7.55c1.58,0,2.82,0.55,3.5,1.54c0.74,1.09,0.81,2.66,0.18,4.42
		l-3.57,10.03L68.9,59.52c-0.02,0.04-0.04,0.07-0.05,0.11l-1.04,2.9c-0.21,0.6-0.14,1.23,0.21,1.73c0.34,0.48,0.9,0.77,1.5,0.77
		c0.18,0,0.37-0.03,0.55-0.08l13.25-3.78c0.68-0.19,1.32-0.29,1.93-0.29c0.99,0,1.82,0.25,2.46,0.76c0.95,0.74,1.41,2.02,1.31,3.6
		c-0.26,4.08-4.04,8.54-8.25,9.74c0,0-0.04,0.01-0.07,0.02l-17.28,4.93c-1.31,0.37-2.36,1.36-2.82,2.64l-1.1,3.07
		c-0.02,0.05-0.03,0.09-0.04,0.14l-1.28,3.55c-0.33,0.91-0.21,1.87,0.32,2.63c0.52,0.74,1.34,1.16,2.27,1.16
		c1.3,0,2.51-0.87,2.96-2.11l2.01-5.58c0.04-0.11,0.14-0.2,0.25-0.23l16.07-4.54c6.78-1.93,12.42-8.69,12.86-15.39
		C95.14,61.76,93.94,58.8,91.53,56.92z"/>
	<path class="st1" d="M91.53,56.92C89.93,55.66,87.87,55,85.59,55c-1.16,0-2.36,0.17-3.56,0.52l-5.94,1.68
		c-0.07,0-0.1-0.03-0.12-0.06c-0.04-0.06-0.03-0.13-0.01-0.19L86.25,28.3c1.25-3.52,0.97-7.02-0.78-9.59
		c-1.72-2.53-4.59-3.93-8.09-3.93c-2.06,0-4.18,0.48-6.28,1.43c-0.05,0.02-0.09,0.03-0.13,0.03c-0.05,0-0.09-0.02-0.11-0.05
		c-0.03-0.03-0.04-0.08-0.03-0.15c0.38-2.64-0.11-5.05-1.42-6.98c-1.72-2.53-4.59-3.93-8.09-3.93c-5.16,0-10.67,3.07-14.03,7.81
		c-0.06,0.09-0.16,0.14-0.25,0.14c-0.08,0-0.12-0.04-0.13-0.05c-1.75-1.71-4.16-2.62-6.98-2.62c-6.7,0-13.8,5.21-16.16,11.85
		c0,0.01-5.08,14.03-5.11,14.13c-1.14,3.21-4.36,6.18-7.83,7.23c-0.03,0.01-0.07-0.01-0.07-0.01H-47v6.11H9.48
		c0.09,0.03,0.58,0.01,0.67,0h0l0,0c6.1-0.93,11.98-5.8,14.07-11.67c0-0.01,0.01-0.02,5.11-14.13c1.47-4.13,6.15-7.62,10.23-7.62
		c1.58,0,2.82,0.55,3.5,1.54c0.74,1.09,0.81,2.66,0.18,4.42l-3.57,10.04l-5.35,15.15c-0.21,0.59-0.12,1.23,0.22,1.72
		c0.34,0.49,0.89,0.77,1.5,0.77h2.07c0.85,0,1.62-0.55,1.91-1.36l2.37-6.66l5.39-15.07c0,0,2.93-8.26,2.94-8.28
		c1.49-4.1,6.15-7.55,10.21-7.55c1.58,0,2.82,0.55,3.5,1.54c0.74,1.09,0.81,2.66,0.18,4.42l-3.57,10.04l-4.72,13.4l-2.51,7.05
		c-0.21,0.59-0.13,1.23,0.22,1.72c0.34,0.49,0.89,0.77,1.5,0.77h2.05c0.85,0,1.62-0.55,1.91-1.36l4.33-12.11l2.92-8.21
		c0.01-0.02,0.01-0.05,0.02-0.07c1.49-4.1,6.15-7.55,10.21-7.55c1.58,0,2.82,0.55,3.5,1.54c0.74,1.09,0.81,2.66,0.18,4.42
		l-3.57,10.03L68.9,59.52c-0.02,0.04-0.04,0.07-0.05,0.11l-1.04,2.9c-0.21,0.6-0.14,1.23,0.21,1.73c0.34,0.48,0.9,0.77,1.5,0.77
		c0.18,0,0.37-0.03,0.55-0.08l13.25-3.78c0.68-0.19,1.32-0.29,1.93-0.29c0.99,0,1.82,0.25,2.46,0.76c0.95,0.74,1.41,2.02,1.31,3.6
		c-0.26,4.08-4.04,8.54-8.25,9.74c0,0-0.04,0.01-0.07,0.02l-17.28,4.93c-1.31,0.37-2.36,1.36-2.82,2.64l-1.1,3.07
		c-0.02,0.05-0.03,0.09-0.04,0.14l-1.28,3.55c-0.33,0.91-0.21,1.87,0.32,2.63c0.52,0.74,1.34,1.16,2.27,1.16
		c1.3,0,2.51-0.87,2.96-2.11l2.01-5.58c0.04-0.11,0.14-0.2,0.25-0.23l16.07-4.54c6.78-1.93,12.42-8.69,12.86-15.39
		C95.14,61.76,93.94,58.8,91.53,56.92z"/>
	<path class="st1" d="M91.53,56.92C89.93,55.66,87.87,55,85.59,55c-1.16,0-2.36,0.17-3.56,0.52l-5.94,1.68
		c-0.07,0-0.1-0.03-0.12-0.06c-0.04-0.06-0.03-0.13-0.01-0.19L86.25,28.3c1.25-3.52,0.97-7.02-0.78-9.59
		c-1.72-2.53-4.59-3.93-8.09-3.93c-2.06,0-4.18,0.48-6.28,1.43c-0.05,0.02-0.09,0.03-0.13,0.03c-0.05,0-0.09-0.02-0.11-0.05
		c-0.03-0.03-0.04-0.08-0.03-0.15c0.38-2.64-0.11-5.05-1.42-6.98c-1.72-2.53-4.59-3.93-8.09-3.93c-5.16,0-10.67,3.07-14.03,7.81
		c-0.06,0.09-0.16,0.14-0.25,0.14c-0.08,0-0.12-0.04-0.13-0.05c-1.75-1.71-4.16-2.62-6.98-2.62c-6.7,0-13.8,5.21-16.16,11.85
		c0,0.01-5.08,14.03-5.11,14.13c-1.14,3.21-4.36,6.18-7.83,7.23c-0.03,0.01-0.07-0.01-0.07-0.01H-47v6.11H9.48
		c0.09,0.03,0.58,0.01,0.67,0h0l0,0c6.1-0.93,11.98-5.8,14.07-11.67c0-0.01,0.01-0.02,5.11-14.13c1.47-4.13,6.15-7.62,10.23-7.62
		c1.58,0,2.82,0.55,3.5,1.54c0.74,1.09,0.81,2.66,0.18,4.42l-3.57,10.04l-5.35,15.15c-0.21,0.59-0.12,1.23,0.22,1.72
		c0.34,0.49,0.89,0.77,1.5,0.77h2.07c0.85,0,1.62-0.55,1.91-1.36l2.37-6.66l5.39-15.07c0,0,2.93-8.26,2.94-8.28
		c1.49-4.1,6.15-7.55,10.21-7.55c1.58,0,2.82,0.55,3.5,1.54c0.74,1.09,0.81,2.66,0.18,4.42l-3.57,10.04l-4.72,13.4l-2.51,7.05
		c-0.21,0.59-0.13,1.23,0.22,1.72c0.34,0.49,0.89,0.77,1.5,0.77h2.05c0.85,0,1.62-0.55,1.91-1.36l4.33-12.11l2.92-8.21
		c0.01-0.02,0.01-0.05,0.02-0.07c1.49-4.1,6.15-7.55,10.21-7.55c1.58,0,2.82,0.55,3.5,1.54c0.74,1.09,0.81,2.66,0.18,4.42
		l-3.57,10.03L68.9,59.52c-0.02,0.04-0.04,0.07-0.05,0.11l-1.04,2.9c-0.21,0.6-0.14,1.23,0.21,1.73c0.34,0.48,0.9,0.77,1.5,0.77
		c0.18,0,0.37-0.03,0.55-0.08l13.25-3.78c0.68-0.19,1.32-0.29,1.93-0.29c0.99,0,1.82,0.25,2.46,0.76c0.95,0.74,1.41,2.02,1.31,3.6
		c-0.26,4.08-4.04,8.54-8.25,9.74c0,0-0.04,0.01-0.07,0.02l-17.28,4.93c-1.31,0.37-2.36,1.36-2.82,2.64l-1.1,3.07
		c-0.02,0.05-0.03,0.09-0.04,0.14l-1.28,3.55c-0.33,0.91-0.21,1.87,0.32,2.63c0.52,0.74,1.34,1.16,2.27,1.16
		c1.3,0,2.51-0.87,2.96-2.11l2.01-5.58c0.04-0.11,0.14-0.2,0.25-0.23l16.07-4.54c6.78-1.93,12.42-8.69,12.86-15.39
		C95.14,61.76,93.94,58.8,91.53,56.92z"/>
</g>
</svg>
