<svg xmlns="http://www.w3.org/2000/svg" xmlns:xlink="http://www.w3.org/1999/xlink" width="384" height="360" viewBox="0 0 384 360">
    <defs>
        <path id="a" d="M0 0h529v476H0z"/>
    </defs>
    <g fill="none" fill-rule="evenodd" transform="rotate(-33 300.422 362.565)">
        <mask id="b" fill="#fff">
            <use xlink:href="#a"/>
        </mask>
        <path fill="#FFF" d="M507.768 178.676c-24.722 52.07-64.864 95.825-111.186 129.355-49.38 35.742-105.684 60.194-164.24 76.163-7.018 1.913-14.063 3.686-21.127 5.372a424.66 424.66 0 0 1-14.166-14.18c-34.868-36.612-63.085-80.21-76.616-129.364-12.892-46.822-13.273-98.04 3.996-143.805 8.774-23.256 22.348-45.133 40.225-62.414 20.721-20.029 47.255-30.661 75.793-32.728 13.841-1.002 28.374-.083 41.15 5.827 10.89 5.04 19.731 13.526 26.104 23.658 15.195 24.155 15.59 53.421 12.55 80.95-.852 7.739-1.972 15.446-3.098 23.15-.605 4.168 5.513 6.118 6.461 1.79 11.438-52.197 64.417-84.992 114.957-88.545 14.986-1.053 30.534-.016 44.666 5.447 13.74 5.315 24.604 15.382 31.228 28.56 14.64 29.115 6.577 62.807-6.697 90.764m17.411-81.947c-4.341-13.951-12.424-26.553-24.19-35.284-12.548-9.31-28.236-13.218-43.576-14.304-49.784-3.534-105.528 21.257-130.039 66.295 2.042-20.944 1.943-42.096-5.18-62.08-8.768-24.591-27.123-44.27-53.228-49.517-14.008-2.813-28.479-2.107-42.51.156-14.778 2.387-29.295 7.071-42.31 14.574-23.233 13.385-41.44 34.968-54.379 58.265-24.775 44.607-30.076 97.791-21.47 147.6 9.006 52.148 34.042 99.446 67.82 139.636 8.607 10.24 17.732 19.996 27.283 29.32-57.497 13.065-116.412 19.196-175.19 22.89-8.326.522-16.652.996-24.984 1.435-4.288.226-4.315 6.964 0 6.735 69.098-3.65 138.467-9.752 205.995-25.506 27.554 25.94 58.37 48.446 90.363 68.427a818.498 818.498 0 0 0 16.7 10.14c3.726 2.203 7.1-3.616 3.383-5.817-36.396-21.526-71.438-45.873-102.575-74.608 61.613-15.107 121.382-38.897 173.938-74.946 48.562-33.312 90.832-76.812 118.226-129.436 14.86-28.555 25.893-61.94 15.923-93.975" mask="url(#b)"/>
    </g>
</svg>
