<svg xmlns="http://www.w3.org/2000/svg" width="149" height="60" viewBox="0 0 149 60">
    <g fill="#2F2F2F" fill-rule="nonzero">
        <path d="M37.518 5.481C35.108 1.947 31.024 0 26.016 0 15.938 0 4.834 8.152 1.262 18.172A19.21 19.21 0 0 0 .12 23.786a1.868 1.868 0 0 0 .528 1.384c.375.386.891.602 1.43.599a1.835 1.835 0 0 0 1.83-1.817c.054-1.612.366-3.206.924-4.72C7.868 10.71 17.265 3.775 25.778 3.775c3.778 0 6.817 1.405 8.557 3.952 1.848 2.711 2.077 6.42.643 10.44-3.039 8.528-12.433 15.46-20.946 15.46-.206 0-.407 0-.61-.015a.09.09 0 0 1-.077-.04.15.15 0 0 1-.007-.134l7.307-20.718c.134-.367.08-.776-.143-1.097-.22-.31-.579-.493-.96-.489h-1.355a1.32 1.32 0 0 0-1.226.876L9.448 33.293a.533.533 0 0 0-.033.076l-.692 1.96c-.116.318-.092.67.066.968.154.29.424.501.742.582 1.393.358 2.825.535 4.263.528 5.213 0 10.985-2.224 15.815-6.085 1.49-1.082 3.531-3.418 4.981-5.196a22.83 22.83 0 0 0 2.293-3.387c.542-.98 1.222-2.264 1.665-3.508 1.847-5.182 1.48-10.066-1.03-13.75zM48.56 9.266a1.682 1.682 0 0 0 2.36.36l5.196-3.833a1.675 1.675 0 0 0-.322-2.887 1.685 1.685 0 0 0-1.671.185l-5.214 3.808a1.674 1.674 0 0 0-.366 2.34l.017.027zM92.47 9.266a1.682 1.682 0 0 0 2.36.36l5.196-3.833a1.675 1.675 0 0 0-.322-2.887 1.685 1.685 0 0 0-1.671.185l-5.217 3.812a1.674 1.674 0 0 0-.36 2.339l.014.024zM146.498 39.2c-.928-.719-2.112-1.105-3.426-1.105a7.525 7.525 0 0 0-2.052.297l-3.353.958-.076-.011c-.015-.02 0-.053 0-.07l5.895-16.372c.72-2.023.556-4.031-.452-5.509-.994-1.456-2.65-2.259-4.665-2.259a8.784 8.784 0 0 0-3.61.818.103.103 0 0 1-.043.01.19.19 0 0 1-.05-.008.068.068 0 0 1-.007-.056c.217-1.516-.066-2.904-.822-4.012-.993-1.456-2.65-2.258-4.663-2.258-2.97 0-6.136 1.757-8.068 4.478a.12.12 0 0 1-.1.057.248.248 0 0 1-.056-.008c-1.01-.986-2.401-1.507-4.024-1.507-3.851 0-7.934 2.987-9.29 6.795-2.253 6.181-2.789 7.665-2.916 8.07h-.01c-.6 1.698-2.24 3.263-4.057 3.952 0 0-.491.199-.742.261-.548.1-.997.04-1.35-.18-1.666-.934.08-4.91.36-5.509a.425.425 0 0 0 .09-.24l5.424-9.424a1.689 1.689 0 0 0-.64-2.282 1.698 1.698 0 0 0-2.3.597l-.994 1.713a7.955 7.955 0 0 0-.703-1.306c-1.26-1.639-3.242-2.47-5.904-2.47-4.536 0-8.724 4.616-10.853 9.174l-.089.16c-.24.44-.75 1.356-1.783 3.053l-.262.47c-.683 1.184-1.59 1.76-2.775 1.76a2.3 2.3 0 0 1-1.567-.577c2.822-5.836 3.742-10.859 4.04-13.635a1.576 1.576 0 0 0-.65-1.473 1.585 1.585 0 0 0-1.61-.135c-.52.252-.861.767-.889 1.343-.081 1.523-.391 4.37-1.543 6.986l-.608.327c-2.402 1.473-3.497 4.192-2.682 6.664a22.054 22.054 0 0 1-1.708 2.439c-1.48 1.842-2.737 2.68-3.828 2.59-.491-.045-.84-.26-1.057-.653-1.354-2.453.524-9.149 3.055-13.62l.672-1.161a1.665 1.665 0 0 0-.611-2.278 1.674 1.674 0 0 0-2.284.61l-.661 1.144a32.586 32.586 0 0 0-2.629 5.957l-.96 1.721-2.642 4.573c-1.2 2.07-2.553 3.3-3.981 3.657-.548.1-.997.04-1.351-.18-1.666-.934.081-4.91.36-5.508a.425.425 0 0 0 .091-.24l5.427-9.426a1.689 1.689 0 0 0-.624-2.31 1.698 1.698 0 0 0-2.315.623l-.993 1.721a7.955 7.955 0 0 0-.696-1.306c-1.26-1.639-3.242-2.47-5.904-2.47-5.845 0-11.585 7.864-12.441 14.372-.593 4.034.916 6.974 4.038 7.864.708.21 1.443.32 2.182.326 2.432 0 4.813-1.15 7.084-3.423.341 1.125.987 1.952 2.041 2.635.712.491 1.59.73 2.683.73.39-.009.78-.046 1.164-.11 1.468-.331 3.595-1.372 5.628-4.406.107.719.332 1.415.667 2.06.779 1.497 2.094 2.346 3.821 2.457h.368c2.08 0 4.202-1.288 6.32-3.833.466-.55.897-1.128 1.291-1.732a5.74 5.74 0 0 0 3.144 1.04h.263a6.077 6.077 0 0 0 3.152-.89c.306 2.617 1.783 4.477 4.101 5.138.709.21 1.443.32 2.182.326 2.434 0 4.814-1.151 7.084-3.423.341 1.124.987 1.952 2.042 2.635.71.49 1.588.73 2.68.73.305-.005.608-.031.908-.078l.261-.044c3.218-.795 6.203-3.416 7.314-6.533 0-.012 2.925-8.063 2.926-8.066.82-2.303 3.542-4.324 5.822-4.324.892 0 1.592.306 1.972.862.418.614.454 1.498.1 2.49l-2.042 5.731-3.063 8.657c-.123.34-.073.72.133 1.018.205.288.539.457.892.454h1.184c.51-.004.964-.326 1.133-.806l1.357-3.805 3.089-8.606 1.671-4.69c0-.013.009-.026.012-.04.84-2.288 3.541-4.287 5.81-4.287.892 0 1.592.307 1.971.864.418.613.454 1.498.1 2.49l-2.042 5.732-2.7 7.653-1.44 4.028a1.12 1.12 0 0 0 .13 1.02c.205.289.539.459.893.455h1.175c.509-.003.961-.325 1.13-.804l2.483-6.915s1.68-4.716 1.68-4.725c.841-2.29 3.542-4.291 5.812-4.291.892 0 1.591.306 1.97.862.42.614.454 1.5.101 2.491l-2.04 5.73-4.706 13.053a.644.644 0 0 0-.03.066l-.6 1.653c-.13.34-.085.721.12 1.021.205.29.539.461.894.46.11 0 .218-.016.323-.045l7.586-2.156c.355-.105.723-.16 1.093-.164.497-.02.985.13 1.385.425.532.414.793 1.132.735 2.022-.148 2.275-2.342 4.86-4.696 5.528l-.038.01-9.894 2.814a2.47 2.47 0 0 0-1.643 1.531l-.634 1.754a.566.566 0 0 0-.021.086l-.73 2.024a1.657 1.657 0 0 0 .188 1.536c.304.432.803.686 1.332.678a1.879 1.879 0 0 0 1.732-1.23l1.148-3.191a.172.172 0 0 1 .12-.108l9.15-2.58.055-.014c3.895-1.108 7.143-4.984 7.392-8.826.14-1.998-.554-3.701-1.943-4.786zm-92.91-17.594l-.013.081-1.668 2.864c-.44.874-4.427 8.503-9.39 7.066-1.867-.518-1.802-2.837-1.601-4.179.672-4.996 5.19-11.443 9.068-11.443 1.541 0 2.575.379 3.153 1.146.906 1.33.61 3.37.45 4.465zm43.91 0l-.011.081-1.67 2.864c-.439.874-4.426 8.503-9.39 7.066-1.865-.518-1.801-2.837-1.6-4.179.672-4.996 5.189-11.443 9.067-11.443 1.542 0 2.576.379 3.153 1.146.907 1.33.61 3.37.452 4.465z"/>
    </g>
</svg>
