<svg xmlns="http://www.w3.org/2000/svg" width="48" height="48" viewBox="0 0 48 48">
    <g fill="none" fill-rule="evenodd">
        <path d="M0 0h48v48H0z"/>
        <circle cx="24" cy="24" r="23" stroke="#000" stroke-width="2"/>
        <path fill="#000" d="M33.301 18.377a4.92 4.92 0 0 0 2.066-2.741 9.115 9.115 0 0 1-2.985 1.202c-.856-.964-2.078-1.565-3.43-1.565-2.596 0-4.699 2.22-4.699 4.956 0 .389.039.768.12 1.13-3.905-.208-7.368-2.18-9.687-5.18a5.153 5.153 0 0 0-.636 2.493c0 1.719.83 3.236 2.09 4.127a4.532 4.532 0 0 1-2.13-.62v.061c0 2.403 1.62 4.407 3.772 4.86-.395.117-.809.175-1.24.175a4.42 4.42 0 0 1-.883-.088c.597 1.968 2.333 3.404 4.39 3.442-1.609 1.33-3.635 2.122-5.837 2.122-.379 0-.754-.022-1.121-.068 2.08 1.405 4.55 2.226 7.205 2.226 8.646 0 13.371-7.553 13.371-14.104 0-.215-.003-.43-.012-.64A9.825 9.825 0 0 0 36 17.596c-.843.394-1.75.661-2.699.78z"/>
    </g>
</svg>
